PathFileType	4	(X/Y/Z)	pose_F01_0-84.trc
DataRate	CameraRate	NumFrames	NumMarkers	Units	OrigDataRate	OrigDataStartFrame	OrigNumFrames
30	30	8	21	m	30	72	84
Frame#	Time	CHip			RHip			RKnee			RAnkle			RBigToe			RSmallToe			RHeel			LHip			LKnee			LAnkle			LBigToe			LSmallToe			LHeel			Neck			Nose			RShoulder			RElbow			RWrist			LShoulder			LElbow			LWrist			
		X1	Y1	Z1	X2	Y2	Z2	X3	Y3	Z3	X4	Y4	Z4	X5	Y5	Z5	X6	Y6	Z6	X7	Y7	Z7	X8	Y8	Z8	X9	Y9	Z9	X10	Y10	Z10	X11	Y11	Z11	X12	Y12	Z12	X13	Y13	Z13	X14	Y14	Z14	X15	Y15	Z15	X16	Y16	Z16	X17	Y17	Z17	X18	Y18	Z18	X19	Y19	Z19	X20	Y20	Z20	X21	Y21	Z21	
72	2.4	-0.20174318432521196	1.8520219269535294	-0.416985747151536	-0.21267880863820166	1.8483992946850565	-0.35832347421310695	-0.23328210314829703	1.7457966798943108	-0.39074754828573044													-0.1925850480671183	1.8518319329614628	-0.47643071941053267	-0.1999860816601902	1.7455706127742447	-0.4915186375350667	-0.18657370215578106	1.6306857149543672	-0.46187411815327234	-0.19789037147156585	1.5982249897652328	-0.5140746991861209	-0.18886536364161544	1.6107454805569525	-0.5290612147579827	-0.1889201538236822	1.6132673892790286	-0.4572893010830141	-0.22567513983658632	1.9564240480585593	-0.48345663015798535	-0.2488506968370823	1.9587821273231742	-0.533447384739969	-0.24821867034783687	1.9516657193577496	-0.40165389758757986	-0.23207792053622617	1.8743529970984156	-0.3351843604562929	-1.3124193935830126	1.8643734096807725	0.7690751611937039	-0.19905794641378713	1.956249927534071	-0.5584023970534473	-0.18895121585137165	1.8821830756707736	-0.5282967970073371	-0.19518732437095498	1.810223339084868	-0.5045354862902263
73	2.433333333333333	-0.20404092255891804	1.849168897866588	-0.4237492018769291	-0.21129843796519743	1.8476652770096462	-0.36076363391038296	-0.23328210314829703	1.7457966798943108	-0.39074754828573044													-0.1920073454061532	1.8494147407437758	-0.48216215765686227	-0.2001115467632064	1.7442960253140691	-0.4911756867207021	-0.18657370215578106	1.6306857149543672	-0.46187411815327234	-0.19549246309092716	1.5967824182928179	-0.5162909258128776	-0.18574659230577834	1.6103302028943194	-0.5281153498858903	-0.1889201538236822	1.6132673892790286	-0.4572893010830141	-0.22316114379340335	1.9479596322438268	-0.49027803007620274	-0.24140934856608035	1.9279646928772955	-0.5123710707267618	-0.24580560517305117	1.9467774464417582	-0.4006044966455634	-0.23325972434219142	1.869612957399218	-0.33783520188183225	-1.1781757066527219	1.8580149477297314	0.6238734873800778	-0.19908692689147398	1.9522586958223274	-0.5667270118823686	-0.19029351296619598	1.8785863493994799	-0.531499680761001	-0.1924764750947207	1.8103356685480763	-0.5038641971917479
74	2.466666666666667	-0.20209086553775668	1.8514761643177011	-0.42636894519197643	-0.20929737755895586	1.8492455314660354	-0.36312627722644464	-0.23328210314829703	1.7457966798943108	-0.39074754828573044													-0.18988504849629656	1.8503759757965608	-0.4846395953034998	-0.1937750091887033	1.7450097067608914	-0.4982135079024726	-0.18657370215578106	1.6306857149543672	-0.46187411815327234	-0.19736098028747762	1.5959842317705584	-0.5141386380090495	-0.1866064111007778	1.6097652083069514	-0.531255627878963	-0.1889201538236822	1.6132673892790286	-0.4572893010830141	-0.22468091043665578	1.9488854008012313	-0.49459793238481153	-0.25159500155403	1.9361839273404073	-0.5357121149030312	-0.24798614721601467	1.9458868629736523	-0.40710588129094094	-0.2380192650243986	1.8706480636780247	-0.3605415114744486	-1.043932019722431	1.8516564857786904	0.4786718135664517	-0.20249525547074718	1.9542731287993809	-0.5773844844199832	-0.1916912918754102	1.881211955717652	-0.5431544905283312	-0.1929520765548629	1.8078156351903578	-0.5028325165014585
75	2.5	-0.2018207052681948	1.8510869607336982	-0.43528619632977694	-0.2111868946836745	1.8512580678353747	-0.37903186168157244	-0.23328210314829703	1.7457966798943108	-0.39074754828573044													-0.19045358459291803	1.8507730153559214	-0.4880662121987219	-0.1979104717046822	1.7452061794044413	-0.49375474742375397	-0.18657370215578106	1.6306857149543672	-0.46187411815327234	-0.1982944373874697	1.5959188223967729	-0.5173279058726011	-0.1866842394464099	1.6099875894345075	-0.5312526531644837	-0.1889201538236822	1.6132673892790286	-0.4572893010830141	-0.22432683714757823	1.9513672342309005	-0.49455834495002293	-0.24890539498088746	1.9295636908935387	-0.5434955684274815	-0.24684030312640004	1.9468847327901408	-0.4038380760251658	-0.22979995309185772	1.8745305736121989	-0.36034852535601	-0.9096883327921403	1.8452980238276495	0.3334701397528257	-0.19931459913249142	1.9586666588966015	-0.5768279309750534	-0.18930708317308167	1.8824708883328185	-0.5450269984091026	-0.19022954903863404	1.815014748368381	-0.5059028656897739
76	2.533333333333333	-0.20242042167063562	1.850549183331836	-0.4383349631209478	-0.21509390130451472	1.8482792516396844	-0.38315398758769503	-0.23328210314829703	1.7457966798943108	-0.39074754828573044													-0.18825529675150338	1.851896630530497	-0.4904370090851635	-0.2005776674609763	1.7406537035198644	-0.4945089167783551	-0.18657370215578106	1.6306857149543672	-0.46187411815327234	-0.19873970203688013	1.5978775167914965	-0.5173043779210676	-0.1869930067564536	1.6115384941227746	-0.5312463853908099	-0.1889201538236822	1.6132673892790286	-0.4572893010830141	-0.22441109065817033	1.9530565877744739	-0.4950148176164211	-1.535730068412506	1.8652105311409568	0.8113579468637124	-0.2497128534867698	1.9493319200322592	-0.40536219822195274	-0.22880699138610258	1.8698771307598747	-0.35759481793612136	-0.7754446458618496	1.8389395618766085	0.18826846593919955	-0.2002915177550929	1.9601781090435892	-0.5808146131411358	-0.19228831666977206	1.8905563807414774	-0.5565142420542455	-0.19142275143140497	1.8245246048092403	-0.5198844007964714
77	2.566666666666667	-0.2018406507783692	1.8511494264294197	-0.4354108923502388	-0.21234096119653914	1.8498781082169546	-0.3821042659925025	-0.23430488051850193	1.740114626008469	-0.35142049085505817													-0.18854432054790782	1.8510326932053105	-0.4904336621010818	-0.19476545858842206	1.7423616371994737	-0.5012435469273671	-0.18657370215578106	1.6306857149543672	-0.46187411815327234	-0.19640863640821507	1.5965571485677323	-0.5195138414656204	-0.18655946228358203	1.6093928760093061	-0.5315399923202324	-0.1889201538236822	1.6132673892790286	-0.4572893010830141	-0.22406474880018967	1.9580803228288632	-0.49532855223042566	-0.2424948885965812	1.953276088766174	-0.5441713187121373	-0.24465460441930253	1.95350141228379	-0.40682753962025364	-0.2336446865310103	1.8724855486402938	-0.36537775669903977	-0.6412009589315588	1.8325810999255674	0.043066792125573405	-0.19944884447820077	1.9608479568354897	-0.5775308068593012	-0.19450702838307568	1.8920333186589644	-0.554516306171037	-0.1965378289575798	1.8185235578527996	-0.5140807898558195
78	2.6	-0.20168099414237373	1.8462367855445467	-0.4345715629844307	-0.21315795537189475	1.8453878298645103	-0.38457226020889673	-0.2376164469962303	1.7398184797551188	-0.3569777973703451													-0.19038730722170577	1.8468017465260615	-0.48754982827014987	-0.20025087597574448	1.7374997645498327	-0.4945864210210051	-0.18657370215578106	1.6306857149543672	-0.46187411815327234	-0.1976180151797809	1.59717636891265	-0.5141419498915221	-0.186054796185356	1.6089204981323946	-0.5275260797551129	-0.1889201538236822	1.6132673892790286	-0.4572893010830141	-0.22299323888562322	1.9572363954978378	-0.491680464863827	-0.2505784918244081	1.9495731421524813	-0.535056661017801	-0.24522595884813256	1.951679081936281	-0.40072497228847986	-0.22444779425971872	1.8734281601551381	-0.3522310779971498	-0.5069572720012681	1.8262226379745263	-0.10213488168805274	-0.1973505367394167	1.9612889170682088	-0.5708182341289255	-0.19370893735130462	1.8852962507894007	-0.5535208004151904	-0.19376411301430677	1.8098357130104799	-0.5101889135133109
79	2.6333333333333333	-0.20448637475095086	1.8433169876421935	-0.4260956354522339	-0.21286595997597504	1.8431756119655034	-0.3663011622856173	-0.24092801347395867	1.7395223335017687	-0.3625351038856319													-0.19128007438059844	1.8414432457768777	-0.4812814484780816	-0.20284570666219034	1.7358693612985936	-0.49170525508110874	-0.18657370215578106	1.6306857149543672	-0.46187411815327234	-0.19550852077205588	1.5968492743789695	-0.5163216602015991	-0.18570632471124277	1.609894213939336	-0.5281130323999146	-0.1889201538236822	1.6132673892790286	-0.4572893010830141	-0.2246073672553872	1.9511830282432325	-0.4878129496935519	-0.25492472614240025	1.9434741984774293	-0.5302362594778511	-0.2471218821459821	1.9501354960212736	-0.39820858943067833	-0.23064127680551158	1.8738855067703708	-0.36380665338405543	-0.3727135850709773	1.8198641760234853	-0.24733655550167866	-0.19979135329224673	1.9549277895531583	-0.5698598701265477	-0.19524730651781166	1.8808248323556562	-0.547076359280463	-0.20131046518288198	1.809252364353497	-0.5025541899531034
